# xmcd CD database file
#
# Track frame offsets:
#	150
#	17470
#	36052
#	53645
#	66525
#	83072
#	104450
#	125365
#	145270
#
# Disc length: 2138 seconds
#
# Revision: 0
# Processed by: cddbd v1.5.1PL2 Copyright (c) Steve Scherf et al.
# Submitted via: CD2WAV32(JP) R3.22
#
DISCID=73085809
DTITLE=CREATION - CREATION WITH FELIX PAPPALARDI
DYEAR=1988
DGENRE=Rock
TTITLE0=SHE'S GOT ME
TTITLE1=DREAMS I DREAM OF YOU
TTITLE2=GREEN ROCKY ROAD
TTITLE3=PREACHERS' DAUGHTERS
TTITLE4=LISTEN TO THE MUSIC
TTITLE5=SECRET POWER
TTITLE6=SUMMER DAYS
TTITLE7=DARK EYED LADY OF THE NIGHT
TTITLE8=BALLAD OF A SAD CAFE
EXTD=
EXTT0=
EXTT1=
EXTT2=
EXTT3=
EXTT4=
EXTT5=
EXTT6=
EXTT7=
EXTT8=
PLAYORDER=
